<svg xmlns="http://www.w3.org/2000/svg" viewBox="0 0 512 512" width="192" height="192">
  <defs>
    <linearGradient id="bg192" x1="0%" y1="0%" x2="100%" y2="100%">
      <stop offset="0%" stop-color="#123B2A" />
      <stop offset="100%" stop-color="#0B2319" />
    </linearGradient>
    <linearGradient id="sunGrad192" x1="0%" y1="0%" x2="100%" y2="100%">
      <stop offset="0%" stop-color="#FFE066" />
      <stop offset="100%" stop-color="#F7C948" />
    </linearGradient>
    <linearGradient id="cropGrad192" x1="0%" y1="0%" x2="0%" y2="100%">
      <stop offset="0%" stop-color="#8FCF64" />
      <stop offset="100%" stop-color="#2F7D4F" />
    </linearGradient>
  </defs>
  <rect width="512" height="512" rx="112" fill="url(#bg192)" />
  <circle cx="360" cy="140" r="64" fill="url(#sunGrad192)" />
  <line x1="64" y1="420" x2="448" y2="420" stroke="#8FCF64" stroke-width="6" stroke-linecap="round" opacity="0.6" />
  <line x1="180" y1="240" x2="180" y2="420" stroke="#9ED4EC" stroke-width="8" stroke-linecap="round" />
  <line x1="280" y1="210" x2="280" y2="420" stroke="#9ED4EC" stroke-width="8" stroke-linecap="round" />
  <g transform="translate(230, 220) rotate(-28)">
    <rect x="-130" y="-32" width="260" height="64" rx="8" fill="#102638" stroke="#9ED4EC" stroke-width="5" />
    <rect x="-120" y="-24" width="52" height="48" rx="4" fill="#184363" />
    <rect x="-60" y="-24" width="52" height="48" rx="4" fill="#184363" />
    <rect x="0" y="-24" width="52" height="48" rx="4" fill="#184363" />
    <rect x="60" y="-24" width="52" height="48" rx="4" fill="#184363" />
  </g>
  <g transform="translate(230, 420)">
    <path d="M0 0 Q-20 -50 -40 -70 Q-15 -55 0 -25 Q15 -55 40 -70 Q20 -50 0 0" fill="url(#cropGrad192)" />
    <circle cx="-12" cy="-40" r="8" fill="#E24A4A" />
    <circle cx="10" cy="-32" r="7" fill="#E24A4A" />
  </g>
</svg>
